<?xml version="1.0" standalone="no"?>
<!DOCTYPE svg PUBLIC "-//W3C//DTD SVG 20010904//EN"
 "http://www.w3.org/TR/2001/REC-SVG-20010904/DTD/svg10.dtd">
<svg version="1.0" xmlns="http://www.w3.org/2000/svg"
 width="360.000000pt" height="360.000000pt" viewBox="0 0 360.000000 360.000000"
 preserveAspectRatio="xMidYMid meet">
<metadata>
Created by potrace 1.16, written by Peter Selinger 2001-2019
</metadata>
<g transform="translate(0.000000,360.000000) scale(0.100000,-0.100000)"
fill="#000000" stroke="none">
<path d="M540 2772 c-36 -16 -61 -41 -75 -75 -13 -31 -15 -136 -15 -767 0
-800 -2 -771 59 -823 l33 -27 499 0 c289 0 499 -4 499 -9 0 -5 -18 -48 -39
-95 l-40 -85 -107 -3 c-89 -3 -109 -6 -118 -20 -8 -13 -8 -23 0 -35 10 -17 47
-18 530 -18 l519 0 3 32 c4 39 -4 42 -133 46 l-89 2 -42 85 c-23 47 -40 88
-37 93 2 4 243 7 534 7 585 0 568 -2 608 63 21 34 21 40 21 787 0 747 0 753
-21 787 -42 67 51 63 -1326 62 -686 0 -1255 -3 -1263 -7z m2506 -86 c19 -14
19 -33 19 -756 0 -723 0 -742 -19 -756 -17 -12 -202 -14 -1241 -14 -1088 0
-1223 2 -1243 16 l-22 15 0 739 0 739 22 15 c20 14 155 16 1243 16 1039 0
1224 -2 1241 -14z m-1126 -1690 c22 -46 40 -88 40 -95 0 -8 -57 -11 -200 -11
-110 0 -200 2 -200 4 0 8 73 162 82 174 7 8 45 12 125 12 l114 0 39 -84z"/>
<path d="M2796 2495 c-42 -22 -55 -44 -56 -94 0 -44 -1 -45 -227 -272 -207
-209 -230 -229 -261 -229 -45 0 -88 -27 -107 -67 -14 -28 -25 -35 -98 -57 -45
-14 -149 -47 -232 -73 l-150 -48 -35 18 c-19 10 -47 16 -61 13 -22 -4 -38 8
-107 77 -74 74 -82 86 -82 121 0 53 -52 106 -105 106 -51 0 -105 -53 -105
-102 0 -30 -11 -43 -102 -123 -269 -237 -252 -225 -303 -225 -38 0 -52 -5 -76
-29 -65 -65 -20 -171 73 -171 64 1 108 44 108 107 0 24 18 45 108 124 237 211
242 214 295 213 47 -1 52 -4 128 -80 75 -74 79 -81 79 -122 0 -91 99 -135 169
-76 17 14 31 34 31 44 0 14 18 24 78 43 42 14 149 49 236 77 156 51 160 52
193 36 50 -24 88 -20 124 12 26 23 32 36 33 75 l1 46 230 231 c220 221 231
230 268 230 106 0 138 149 42 195 -41 19 -53 19 -89 0z"/>
</g>
</svg>
